<?xml version="1.0" encoding="UTF-8"?>
<svg version="1.1" xmlns="http://www.w3.org/2000/svg" width="1024" height="1024">
<path d="M0 0 C337.92 0 675.84 0 1024 0 C1024 337.92 1024 675.84 1024 1024 C686.08 1024 348.16 1024 0 1024 C0 686.08 0 348.16 0 0 Z " fill="#FDFEFE" transform="translate(0,0)"/>
<path d="M0 0 C0.82505539 0.00757828 1.65011078 0.01515656 2.50016785 0.02296448 C8.20856794 0.11872419 8.20856794 0.11872419 9.328125 1.23828125 C10.90702134 1.49625053 12.49191917 1.7174237 14.078125 1.92578125 C20.25267755 2.90775828 26.19129387 4.46846709 32.203125 6.17578125 C33.10643555 6.4286792 34.00974609 6.68157715 34.94042969 6.94213867 C39.69139129 8.31688313 43.99668664 9.84383925 48.328125 12.23828125 C48.328125 12.89828125 48.328125 13.55828125 48.328125 14.23828125 C49.545 14.40328125 50.761875 14.56828125 52.015625 14.73828125 C58.84909511 16.22050124 64.70125996 20.21909193 70.328125 24.23828125 C70.658125 24.89828125 70.988125 25.55828125 71.328125 26.23828125 C72.6584375 26.85703125 72.6584375 26.85703125 74.015625 27.48828125 C77.34815342 29.2488623 79.26130993 30.98130447 81.73828125 33.73828125 C83.34789584 35.36530911 83.34789584 35.36530911 85.68359375 36.64453125 C104.22412168 47.81814336 119.10269411 71.62640678 127.328125 91.23828125 C127.70470797 92.89571124 128.05013924 94.5614948 128.328125 96.23828125 C128.988125 96.23828125 129.648125 96.23828125 130.328125 96.23828125 C130.699375 95.27921875 130.699375 95.27921875 131.078125 94.30078125 C137.96641231 77.42447734 147.73625585 61.53572927 160.328125 48.23828125 C160.988125 48.23828125 161.648125 48.23828125 162.328125 48.23828125 C162.699375 47.37203125 162.699375 47.37203125 163.078125 46.48828125 C164.51112488 43.90888146 166.11237176 42.17706533 168.328125 40.23828125 C168.988125 40.23828125 169.648125 40.23828125 170.328125 40.23828125 C170.328125 39.57828125 170.328125 38.91828125 170.328125 38.23828125 C174.79871324 34.23828125 174.79871324 34.23828125 177.328125 34.23828125 C177.328125 33.57828125 177.328125 32.91828125 177.328125 32.23828125 C178.978125 31.57828125 180.628125 30.91828125 182.328125 30.23828125 C182.328125 29.57828125 182.328125 28.91828125 182.328125 28.23828125 C184.62890625 26.546875 184.62890625 26.546875 187.640625 24.67578125 C189.11982422 23.74572266 189.11982422 23.74572266 190.62890625 22.796875 C193.328125 21.23828125 193.328125 21.23828125 196.328125 20.23828125 C197.3367564 19.2469878 198.33627108 18.2463615 199.328125 17.23828125 C204.75647396 13.87037846 210.74603203 11.98674152 216.828125 10.17578125 C218.44336502 9.68706096 220.05795713 9.19619391 221.671875 8.703125 C222.45570557 8.46368164 223.23953613 8.22423828 224.04711914 7.97753906 C226.20759551 7.277344 228.3057712 6.48925839 230.41796875 5.65625 C234.3461264 4.1505052 238.25254214 3.31968531 242.390625 2.61328125 C243.05900391 2.49210938 243.72738281 2.3709375 244.41601562 2.24609375 C277.90729541 -3.74262878 313.638869 -0.04303813 343.328125 17.23828125 C343.328125 17.89828125 343.328125 18.55828125 343.328125 19.23828125 C343.86566406 19.3465625 344.40320313 19.45484375 344.95703125 19.56640625 C347.91180201 20.40367243 350.50702358 21.63854941 353.265625 22.98828125 C354.79509766 23.72304688 354.79509766 23.72304688 356.35546875 24.47265625 C359.59237204 26.39523219 361.72528464 28.52535097 364.328125 31.23828125 C365.50296443 32.27988102 366.69008504 33.3077319 367.88671875 34.32421875 C368.83708008 35.13246094 368.83708008 35.13246094 369.80664062 35.95703125 C371.10650307 37.05601764 372.40857078 38.15240128 373.71289062 39.24609375 C377.50757062 42.48216603 380.78037212 45.82784229 383.94873047 49.67626953 C385.40684962 51.42270842 385.40684962 51.42270842 387.83984375 53.20703125 C391.2222805 55.96820411 393.5838592 59.22230158 396.140625 62.73828125 C396.89375977 63.73408203 396.89375977 63.73408203 397.66210938 64.75 C398.13583984 65.39582031 398.60957031 66.04164063 399.09765625 66.70703125 C399.52667236 67.28904297 399.95568848 67.87105469 400.39770508 68.47070312 C401.328125 70.23828125 401.328125 70.23828125 401.328125 74.23828125 C401.988125 74.23828125 402.648125 74.23828125 403.328125 74.23828125 C406.58837903 78.36793635 408.46018764 82.70225726 410.3203125 87.6015625 C410.9776138 89.32124614 411.66904958 91.02838019 412.3984375 92.71875 C415.00693011 98.79557167 416.38342473 104.69996099 417.328125 111.23828125 C417.988125 111.23828125 418.648125 111.23828125 419.328125 111.23828125 C422.91250393 123.9756278 423.72757318 136.33583783 423.703125 149.48828125 C423.70530029 150.62420715 423.70530029 150.62420715 423.70751953 151.78308105 C423.7046646 164.99071979 423.48747571 178.73758422 418.828125 191.23828125 C417.04105634 196.21993283 415.48684027 201.07673139 414.328125 206.23828125 C413.668125 206.23828125 413.008125 206.23828125 412.328125 206.23828125 C412.30234375 206.79515625 412.2765625 207.35203125 412.25 207.92578125 C411.80439331 213.92121673 410.27739998 218.00569661 407.328125 223.23828125 C406.668125 223.23828125 406.008125 223.23828125 405.328125 223.23828125 C405.18375 224.00140625 405.039375 224.76453125 404.890625 225.55078125 C404.328125 228.23828125 404.328125 228.23828125 403.328125 231.23828125 C402.668125 231.23828125 402.008125 231.23828125 401.328125 231.23828125 C400.668125 234.53828125 400.008125 237.83828125 399.328125 241.23828125 C398.338125 241.56828125 397.348125 241.89828125 396.328125 242.23828125 C395.52599872 244.11215341 395.52599872 244.11215341 395.140625 246.30078125 C394.90279297 247.40099609 394.90279297 247.40099609 394.66015625 248.5234375 C394.55058594 249.08933594 394.44101562 249.65523437 394.328125 250.23828125 C393.668125 250.23828125 393.008125 250.23828125 392.328125 250.23828125 C392.06 251.10453125 391.791875 251.97078125 391.515625 252.86328125 C390.35700513 256.15620089 388.94602661 259.14956 387.328125 262.23828125 C386.338125 262.23828125 385.348125 262.23828125 384.328125 262.23828125 C383.998125 263.88828125 383.668125 265.53828125 383.328125 267.23828125 C382.668125 267.23828125 382.008125 267.23828125 381.328125 267.23828125 C381.328125 268.22828125 381.328125 269.21828125 381.328125 270.23828125 C380.668125 270.23828125 380.008125 270.23828125 379.328125 270.23828125 C379.24304688 270.94984375 379.15796875 271.66140625 379.0703125 272.39453125 C378.16585365 275.86003673 376.62738757 277.90297914 374.453125 280.73828125 C372.36966532 283.4752246 370.40904059 286.09735649 368.6953125 289.08203125 C368.24414062 289.79359375 367.79296875 290.50515625 367.328125 291.23828125 C366.668125 291.23828125 366.008125 291.23828125 365.328125 291.23828125 C365.1734375 292.19734375 365.1734375 292.19734375 365.015625 293.17578125 C364.78875 293.85640625 364.561875 294.53703125 364.328125 295.23828125 C363.338125 295.56828125 362.348125 295.89828125 361.328125 296.23828125 C361.06 297.08390625 360.791875 297.92953125 360.515625 298.80078125 C358.98004513 303.24588087 356.53867529 306.80089861 353.328125 310.23828125 C352.668125 310.23828125 352.008125 310.23828125 351.328125 310.23828125 C350.998125 311.55828125 350.668125 312.87828125 350.328125 314.23828125 C349.668125 314.23828125 349.008125 314.23828125 348.328125 314.23828125 C347.956875 315.07359375 347.956875 315.07359375 347.578125 315.92578125 C344.62713821 321.38510681 340.15729711 325.61867744 335.640625 329.80078125 C334.22923318 331.19540607 334.22923318 331.19540607 333.48828125 333.1171875 C331.76460775 336.26855016 329.16781486 338.03989889 326.3984375 340.26171875 C324.1728751 342.2365595 324.1728751 342.2365595 322.4375 345.12890625 C320.15220613 348.49759869 317.51075052 350.98405799 314.453125 353.61328125 C310.32382341 357.26519256 306.83167017 360.93353968 303.6875 365.46484375 C301.79659267 367.93171711 299.56265016 369.79313059 297.13671875 371.71875 C293.694504 374.61080515 290.64070089 377.91761142 287.50390625 381.1328125 C286.5495041 382.10549321 285.59507688 383.07814933 284.640625 384.05078125 C284.15529297 384.55287109 283.66996094 385.05496094 283.16992188 385.57226562 C281.92687894 386.83245398 280.63112608 388.04019169 279.328125 389.23828125 C278.668125 389.23828125 278.008125 389.23828125 277.328125 389.23828125 C277.06008057 389.83302246 276.79203613 390.42776367 276.51586914 391.04052734 C275.31832801 393.25640921 274.12493517 394.65907653 272.32421875 396.40234375 C271.74865234 396.96695312 271.17308594 397.5315625 270.58007812 398.11328125 C269.68192383 398.97953125 269.68192383 398.97953125 268.765625 399.86328125 C267.57463116 401.01988276 266.38572495 402.17863903 265.19921875 403.33984375 C264.67255615 403.84854004 264.14589355 404.35723633 263.60327148 404.88134766 C262.2117033 406.2322823 262.2117033 406.2322823 261.328125 408.23828125 C260.668125 408.23828125 260.008125 408.23828125 259.328125 408.23828125 C259.10125 408.83640625 258.874375 409.43453125 258.640625 410.05078125 C256.98498248 412.81018545 255.08706793 413.65188907 252.328125 415.23828125 C251.668125 416.22828125 251.008125 417.21828125 250.328125 418.23828125 C249.60625 418.65078125 248.884375 419.06328125 248.140625 419.48828125 C245.00702349 421.43807774 242.78983703 423.69204568 240.23046875 426.32421875 C238.23841872 428.32854014 236.18713317 430.23258773 234.078125 432.11328125 C233.43359375 432.68820312 232.7890625 433.263125 232.125 433.85546875 C230.328125 435.23828125 230.328125 435.23828125 227.328125 436.23828125 C227.328125 436.89828125 227.328125 437.55828125 227.328125 438.23828125 C225.75525816 439.65266531 224.11672504 440.99432526 222.453125 442.30078125 C218.59190853 445.38480415 214.84591645 448.52405576 211.203125 451.86328125 C207.49251397 455.24081381 203.68091961 458.37409583 199.69140625 461.4140625 C196.03186333 464.2388667 192.47533385 467.18728917 188.90625 470.125 C187.63007812 471.17107422 187.63007812 471.17107422 186.328125 472.23828125 C185.02294922 473.31722656 185.02294922 473.31722656 183.69140625 474.41796875 C181.328125 476.23828125 181.328125 476.23828125 178.265625 477.67578125 C174.96245433 479.43278693 173.55086197 481.27463196 171.328125 484.23828125 C169.16786005 486.11980234 167.53849861 487.16465049 164.828125 488.11328125 C162.12731229 489.08648432 162.12731229 489.08648432 160.453125 491.73828125 C157.72834038 494.94391022 155.36995276 495.38327922 151.328125 496.23828125 C151.328125 496.89828125 151.328125 497.55828125 151.328125 498.23828125 C150.008125 498.56828125 148.688125 498.89828125 147.328125 499.23828125 C147.328125 500.22828125 147.328125 501.21828125 147.328125 502.23828125 C145.46484375 503.80859375 145.46484375 503.80859375 143.015625 505.36328125 C142.21511719 505.88148438 141.41460938 506.3996875 140.58984375 506.93359375 C138.328125 508.23828125 138.328125 508.23828125 135.328125 509.23828125 C135.328125 509.89828125 135.328125 510.55828125 135.328125 511.23828125 C132.75599366 512.85777136 131.65143341 513.28236876 128.578125 512.86328125 C127.835625 512.65703125 127.093125 512.45078125 126.328125 512.23828125 C126.328125 511.57828125 126.328125 510.91828125 126.328125 510.23828125 C125.4 509.97015625 124.471875 509.70203125 123.515625 509.42578125 C120.57031475 508.3285088 119.17794623 507.70470956 117.328125 505.23828125 C117.328125 504.57828125 117.328125 503.91828125 117.328125 503.23828125 C115.678125 502.90828125 114.028125 502.57828125 112.328125 502.23828125 C112.328125 501.57828125 112.328125 500.91828125 112.328125 500.23828125 C111.008125 499.57828125 109.688125 498.91828125 108.328125 498.23828125 C108.328125 497.57828125 108.328125 496.91828125 108.328125 496.23828125 C107.565 495.97015625 106.801875 495.70203125 106.015625 495.42578125 C103.39053704 494.26585866 102.30348034 493.21363659 100.328125 491.23828125 C98.22479609 490.52380482 98.22479609 490.52380482 96.328125 490.23828125 C96.328125 489.57828125 96.328125 488.91828125 96.328125 488.23828125 C95.668125 488.05265625 95.008125 487.86703125 94.328125 487.67578125 C90.66996803 485.92291437 88.14086409 483.55331531 85.1953125 480.796875 C83.30807931 479.02872979 83.30807931 479.02872979 80.328125 478.23828125 C80.328125 477.57828125 80.328125 476.91828125 80.328125 476.23828125 C79.338125 475.90828125 78.348125 475.57828125 77.328125 475.23828125 C77.328125 474.57828125 77.328125 473.91828125 77.328125 473.23828125 C76.52375 472.92890625 75.719375 472.61953125 74.890625 472.30078125 C72.328125 471.23828125 72.328125 471.23828125 71.328125 470.23828125 C71.24045388 468.16566049 71.22116627 466.09007831 71.23046875 464.015625 C71.23369141 462.75556641 71.23691406 461.49550781 71.24023438 460.19726562 C71.24859097 458.85677016 71.25705593 457.51627537 71.265625 456.17578125 C71.2706384 454.83138183 71.27520158 453.48698065 71.27929688 452.14257812 C71.29113012 448.84110184 71.30761529 445.53971322 71.328125 442.23828125 C71.988125 442.23828125 72.648125 442.23828125 73.328125 442.23828125 C73.39 441.51640625 73.451875 440.79453125 73.515625 440.05078125 C74.5835001 436.35429051 76.43632316 434.70689257 79.328125 432.23828125 C79.988125 432.23828125 80.648125 432.23828125 81.328125 432.23828125 C81.328125 431.57828125 81.328125 430.91828125 81.328125 430.23828125 C86.98081312 427.37802586 91.46424174 426.7953401 97.75170898 426.8059082 C98.6695668 426.79571655 99.58742462 426.7855249 100.53309631 426.77502441 C103.54686666 426.74499034 106.56031865 426.73564308 109.57421875 426.7265625 C111.67172799 426.70970872 113.76922717 426.69155754 115.86671448 426.67216492 C121.372313 426.62473484 126.87787074 426.59488015 132.38360596 426.56872559 C138.00777235 426.53888485 143.63179832 426.49236655 149.25585938 426.44726562 C160.27987436 426.361312 171.3039183 426.29393132 182.328125 426.23828125 C182.60785156 425.63371094 182.88757813 425.02914063 183.17578125 424.40625 C185.29573061 420.4178707 188.04848322 417.66482851 192.328125 416.23828125 C193.28067201 413.38064021 193.45172706 411.62609996 193.44837952 408.66352844 C193.44975418 407.72543335 193.45112885 406.78733826 193.45254517 405.82081604 C193.44894989 404.79366989 193.44535461 403.76652374 193.44165039 402.70825195 C193.44186943 401.08362534 193.44186943 401.08362534 193.4420929 399.42617798 C193.44139507 395.83878592 193.43360872 392.25144551 193.42578125 388.6640625 C193.42391661 386.17970305 193.42249292 383.69534323 193.42149353 381.21098328 C193.4180628 375.33556522 193.4101777 369.46016629 193.40014404 363.58475608 C193.38787234 356.23944976 193.38249962 348.89414235 193.37695312 341.54882812 C193.36622221 328.44530305 193.34934184 315.34179333 193.328125 302.23828125 C192.338125 301.90828125 191.348125 301.57828125 190.328125 301.23828125 C188.79296875 299.64453125 188.79296875 299.64453125 187.265625 297.73828125 C185.15090733 295.05721724 185.15090733 295.05721724 182.328125 293.23828125 C182.328125 292.24828125 182.328125 291.25828125 182.328125 290.23828125 C181.40930038 290.22797379 180.49047577 290.21766632 179.54380798 290.20704651 C170.82175296 290.10846426 162.09975586 290.00587222 153.37779903 289.89894199 C148.89536114 289.84412478 144.41291646 289.79077803 139.93041992 289.7409668 C135.59260321 289.69270627 131.25485229 289.64035475 126.91711617 289.5853405 C125.27441644 289.56519216 123.63169889 289.54643952 121.98896599 289.52920723 C88.50190039 289.17425356 88.50190039 289.17425356 79.328125 283.23828125 C73.71381935 275.23599039 72.22479694 267.04491775 72.17041016 257.43945312 C72.16014801 256.12698608 72.14988586 254.81451904 72.13931274 253.46228027 C72.13587482 252.7696257 72.1324369 252.07697113 72.12889481 251.36332703 C72.11696384 249.16583735 72.0974734 246.96853201 72.07577515 244.77111816 C72.01465917 238.52683857 71.96041077 232.28257903 71.92675781 226.03808594 C71.90555331 222.20429351 71.87004953 218.37084161 71.82600021 214.5372467 C71.8120395 213.0927385 71.80316401 211.64817011 71.79994583 210.20359802 C71.77529486 200.19122386 70.63625674 190.96387218 68.328125 181.23828125 C68.08928085 180.06863831 68.08928085 180.06863831 67.84561157 178.87536621 C67.674841 178.33512817 67.50407043 177.79489014 67.328125 177.23828125 C66.00404831 176.553414 64.66903259 175.88957922 63.328125 175.23828125 C62.750625 174.45453125 62.173125 173.67078125 61.578125 172.86328125 C56.8917565 167.39585134 51.28941219 166.0808987 44.328125 165.23828125 C41.99551504 165.14674675 39.6608092 165.10051965 37.32641602 165.09301758 C36.6652478 165.08965897 36.00407959 165.08630035 35.32287598 165.08283997 C33.15924143 165.07341968 30.99568497 165.07139158 28.83203125 165.0703125 C27.31420359 165.06709437 25.79637623 165.06372989 24.27854919 165.06022644 C21.10553265 165.05425796 17.93254325 165.05238425 14.75952148 165.05297852 C10.71025521 165.05308016 6.66116419 165.03941545 2.61193943 165.02220631 C-0.52033781 165.0110453 -3.65257316 165.00906054 -6.78486824 165.00958824 C-8.27707588 165.00841479 -9.76928484 165.00402898 -11.2614727 164.99625587 C-23.81007826 164.70209904 -23.81007826 164.70209904 -35.421875 168.86328125 C-41.74663242 175.53941408 -42.81714199 182.99696764 -42.84545898 191.87475586 C-42.8554895 193.18031685 -42.8554895 193.18031685 -42.86572266 194.51225281 C-42.879758 196.40015714 -42.89165687 198.28807828 -42.90167046 200.17600822 C-42.91809947 203.16440328 -42.94133747 206.15267354 -42.96656799 209.14100647 C-43.03729674 217.63682832 -43.09748854 226.13270046 -43.14868164 234.62866211 C-43.18048142 239.82695168 -43.22175671 245.02509633 -43.26887703 250.22326851 C-43.28488751 252.20357215 -43.29721348 254.18390914 -43.30578423 256.16425896 C-43.31794506 258.93379303 -43.3420975 261.70298651 -43.36889648 264.47241211 C-43.36948563 265.28971802 -43.37007477 266.10702393 -43.37068176 266.94909668 C-43.43557687 272.01316809 -43.74550673 276.14381009 -47.328125 280.0390625 C-47.9365625 280.53792969 -48.545 281.03679687 -49.171875 281.55078125 C-49.7803125 282.06253906 -50.38875 282.57429688 -51.015625 283.1015625 C-52.671875 284.23828125 -52.671875 284.23828125 -54.671875 284.23828125 C-54.70631714 285.14416992 -54.70631714 285.14416992 -54.74145508 286.06835938 C-55.671875 288.23828125 -55.671875 288.23828125 -58.6081543 289.70507812 C-59.91647882 290.14829125 -61.23440585 290.56374083 -62.55859375 290.95703125 C-63.26956711 291.17218384 -63.98054047 291.38733643 -64.71305847 291.60900879 C-72.47140901 293.75252463 -80.09238674 293.92888224 -88.0949707 293.78027344 C-90.52830037 293.73750929 -92.95892702 293.73930059 -95.39257812 293.74609375 C-96.95054009 293.73562711 -98.50848795 293.72270278 -100.06640625 293.70703125 C-100.78818558 293.70682983 -101.5099649 293.70662842 -102.25361633 293.7064209 C-107.19075103 293.58897184 -107.19075103 293.58897184 -109.56933594 291.85522461 C-111.52492546 288.98722872 -112.85415102 285.85924164 -114.29296875 282.7109375 C-115.77983878 280.04468047 -117.51600315 278.38173925 -119.671875 276.23828125 C-120.7772264 274.46390137 -121.81816322 272.64803568 -122.796875 270.80078125 C-123.29445313 269.87394531 -123.79203125 268.94710938 -124.3046875 267.9921875 C-125.56902223 265.44545612 -126.65976574 262.89386316 -127.671875 260.23828125 C-128.331875 260.23828125 -128.991875 260.23828125 -129.671875 260.23828125 C-130.17976563 259.19929688 -130.68765625 258.1603125 -131.2109375 257.08984375 C-135.83710922 247.67588289 -135.83710922 247.67588289 -141.109375 238.61328125 C-143.25861506 235.16517796 -144.45375287 232.38260169 -144.671875 228.23828125 C-145.331875 228.23828125 -145.991875 228.23828125 -146.671875 228.23828125 C-150.27863838 219.79421168 -153.13889235 211.11515391 -155.97119141 202.38916016 C-156.5845592 200.50631336 -157.21111559 198.62777341 -157.83984375 196.75 C-162.41154316 182.68457999 -164.1594147 169.26871555 -164.00805664 154.56494141 C-163.98432462 152.10806605 -163.98754508 149.65227494 -163.99414062 147.1953125 C-163.97242626 134.46127663 -162.65265051 122.2403718 -159.546875 109.86328125 C-159.36511719 109.115625 -159.18335938 108.36796875 -158.99609375 107.59765625 C-158.56057875 105.80975258 -158.11716759 104.02377484 -157.671875 102.23828125 C-157.011875 102.23828125 -156.351875 102.23828125 -155.671875 102.23828125 C-155.341875 99.59828125 -155.011875 96.95828125 -154.671875 94.23828125 C-154.011875 94.23828125 -153.351875 94.23828125 -152.671875 94.23828125 C-152.58292969 93.57183594 -152.49398437 92.90539062 -152.40234375 92.21875 C-151.46188766 88.38148797 -149.77763419 85.04448082 -147.984375 81.55078125 C-147.62061768 80.83817139 -147.25686035 80.12556152 -146.88208008 79.39135742 C-145.82293187 77.33440343 -144.75077123 75.28493377 -143.671875 73.23828125 C-143.18460938 72.31015625 -142.69734375 71.38203125 -142.1953125 70.42578125 C-138.55039011 63.94591922 -133.84071463 58.49662728 -128.96484375 52.92578125 C-126.69330084 50.48140319 -126.69330084 50.48140319 -125.671875 48.23828125 C-125.011875 48.23828125 -124.351875 48.23828125 -123.671875 48.23828125 C-123.671875 47.57828125 -123.671875 46.91828125 -123.671875 46.23828125 C-123.011875 46.23828125 -122.351875 46.23828125 -121.671875 46.23828125 C-121.4140625 45.6453125 -121.15625 45.05234375 -120.890625 44.44140625 C-119.57417605 42.0616716 -118.24606718 40.72849333 -116.171875 38.98828125 C-115.25921875 38.20710938 -115.25921875 38.20710938 -114.328125 37.41015625 C-112.671875 36.23828125 -112.671875 36.23828125 -110.671875 36.23828125 C-110.671875 35.57828125 -110.671875 34.91828125 -110.671875 34.23828125 C-109.021875 33.57828125 -107.371875 32.91828125 -105.671875 32.23828125 C-105.671875 31.57828125 -105.671875 30.91828125 -105.671875 30.23828125 C-101.05094481 26.49447207 -95.80463402 23.63143809 -90.3984375 21.1953125 C-88.60774252 20.31438709 -88.60774252 20.31438709 -87.2890625 18.79296875 C-85.14449535 16.73128342 -82.88058325 15.76314663 -80.171875 14.55078125 C-78.73328125 13.89529297 -78.73328125 13.89529297 -77.265625 13.2265625 C-74.671875 12.23828125 -74.671875 12.23828125 -71.671875 12.23828125 C-71.671875 11.57828125 -71.671875 10.91828125 -71.671875 10.23828125 C-47.5254086 1.39342176 -25.56497619 -0.2937878 0 0 Z " fill="#2BAADA" transform="translate(392.671875,250.76171875)"/>
<path d="M0 0 C0.82505539 0.00757828 1.65011078 0.01515656 2.50016785 0.02296448 C8.20856794 0.11872419 8.20856794 0.11872419 9.328125 1.23828125 C10.90702134 1.49625053 12.49191917 1.7174237 14.078125 1.92578125 C20.25267755 2.90775828 26.19129387 4.46846709 32.203125 6.17578125 C33.10643555 6.4286792 34.00974609 6.68157715 34.94042969 6.94213867 C39.69139129 8.31688313 43.99668664 9.84383925 48.328125 12.23828125 C48.328125 12.89828125 48.328125 13.55828125 48.328125 14.23828125 C49.545 14.40328125 50.761875 14.56828125 52.015625 14.73828125 C58.84909511 16.22050124 64.70125996 20.21909193 70.328125 24.23828125 C70.658125 24.89828125 70.988125 25.55828125 71.328125 26.23828125 C72.6584375 26.85703125 72.6584375 26.85703125 74.015625 27.48828125 C77.34815342 29.2488623 79.26130993 30.98130447 81.73828125 33.73828125 C83.34789584 35.36530911 83.34789584 35.36530911 85.68359375 36.64453125 C104.22412168 47.81814336 119.10269411 71.62640678 127.328125 91.23828125 C127.70470797 92.89571124 128.05013924 94.5614948 128.328125 96.23828125 C128.988125 96.23828125 129.648125 96.23828125 130.328125 96.23828125 C130.699375 95.27921875 130.699375 95.27921875 131.078125 94.30078125 C137.96641231 77.42447734 147.73625585 61.53572927 160.328125 48.23828125 C160.988125 48.23828125 161.648125 48.23828125 162.328125 48.23828125 C162.699375 47.37203125 162.699375 47.37203125 163.078125 46.48828125 C164.51112488 43.90888146 166.11237176 42.17706533 168.328125 40.23828125 C168.988125 40.23828125 169.648125 40.23828125 170.328125 40.23828125 C170.328125 39.57828125 170.328125 38.91828125 170.328125 38.23828125 C174.79871324 34.23828125 174.79871324 34.23828125 177.328125 34.23828125 C177.328125 33.57828125 177.328125 32.91828125 177.328125 32.23828125 C178.978125 31.57828125 180.628125 30.91828125 182.328125 30.23828125 C182.328125 29.57828125 182.328125 28.91828125 182.328125 28.23828125 C184.62890625 26.546875 184.62890625 26.546875 187.640625 24.67578125 C189.11982422 23.74572266 189.11982422 23.74572266 190.62890625 22.796875 C193.328125 21.23828125 193.328125 21.23828125 196.328125 20.23828125 C197.3367564 19.2469878 198.33627108 18.2463615 199.328125 17.23828125 C204.75647396 13.87037846 210.74603203 11.98674152 216.828125 10.17578125 C218.44336502 9.68706096 220.05795713 9.19619391 221.671875 8.703125 C222.45570557 8.46368164 223.23953613 8.22423828 224.04711914 7.97753906 C226.20759551 7.277344 228.3057712 6.48925839 230.41796875 5.65625 C234.3461264 4.1505052 238.25254214 3.31968531 242.390625 2.61328125 C243.05900391 2.49210938 243.72738281 2.3709375 244.41601562 2.24609375 C277.90729541 -3.74262878 313.638869 -0.04303813 343.328125 17.23828125 C343.328125 17.89828125 343.328125 18.55828125 343.328125 19.23828125 C343.86566406 19.3465625 344.40320313 19.45484375 344.95703125 19.56640625 C347.91180201 20.40367243 350.50702358 21.63854941 353.265625 22.98828125 C354.79509766 23.72304688 354.79509766 23.72304688 356.35546875 24.47265625 C359.59237204 26.39523219 361.72528464 28.52535097 364.328125 31.23828125 C365.50296443 32.27988102 366.69008504 33.3077319 367.88671875 34.32421875 C368.83708008 35.13246094 368.83708008 35.13246094 369.80664062 35.95703125 C371.10650307 37.05601764 372.40857078 38.15240128 373.71289062 39.24609375 C377.50757062 42.48216603 380.78037212 45.82784229 383.94873047 49.67626953 C385.40684962 51.42270842 385.40684962 51.42270842 387.83984375 53.20703125 C391.2222805 55.96820411 393.5838592 59.22230158 396.140625 62.73828125 C396.89375977 63.73408203 396.89375977 63.73408203 397.66210938 64.75 C398.13583984 65.39582031 398.60957031 66.04164063 399.09765625 66.70703125 C399.52667236 67.28904297 399.95568848 67.87105469 400.39770508 68.47070312 C401.328125 70.23828125 401.328125 70.23828125 401.328125 74.23828125 C401.988125 74.23828125 402.648125 74.23828125 403.328125 74.23828125 C406.58837903 78.36793635 408.46018764 82.70225726 410.3203125 87.6015625 C410.9776138 89.32124614 411.66904958 91.02838019 412.3984375 92.71875 C415.00693011 98.79557167 416.38342473 104.69996099 417.328125 111.23828125 C417.988125 111.23828125 418.648125 111.23828125 419.328125 111.23828125 C422.91250393 123.9756278 423.72757318 136.33583783 423.703125 149.48828125 C423.70530029 150.62420715 423.70530029 150.62420715 423.70751953 151.78308105 C423.7046646 164.99071979 423.48747571 178.73758422 418.828125 191.23828125 C417.04105634 196.21993283 415.48684027 201.07673139 414.328125 206.23828125 C413.668125 206.23828125 413.008125 206.23828125 412.328125 206.23828125 C412.30234375 206.79515625 412.2765625 207.35203125 412.25 207.92578125 C411.80439331 213.92121673 410.27739998 218.00569661 407.328125 223.23828125 C406.668125 223.23828125 406.008125 223.23828125 405.328125 223.23828125 C405.18375 224.00140625 405.039375 224.76453125 404.890625 225.55078125 C404.328125 228.23828125 404.328125 228.23828125 403.328125 231.23828125 C402.668125 231.23828125 402.008125 231.23828125 401.328125 231.23828125 C400.668125 234.53828125 400.008125 237.83828125 399.328125 241.23828125 C398.338125 241.56828125 397.348125 241.89828125 396.328125 242.23828125 C395.52599872 244.11215341 395.52599872 244.11215341 395.140625 246.30078125 C394.90279297 247.40099609 394.90279297 247.40099609 394.66015625 248.5234375 C394.55058594 249.08933594 394.44101562 249.65523437 394.328125 250.23828125 C393.668125 250.23828125 393.008125 250.23828125 392.328125 250.23828125 C392.06 251.10453125 391.791875 251.97078125 391.515625 252.86328125 C390.35700513 256.15620089 388.94602661 259.14956 387.328125 262.23828125 C386.338125 262.23828125 385.348125 262.23828125 384.328125 262.23828125 C383.998125 263.88828125 383.668125 265.53828125 383.328125 267.23828125 C382.668125 267.23828125 382.008125 267.23828125 381.328125 267.23828125 C381.328125 268.22828125 381.328125 269.21828125 381.328125 270.23828125 C380.668125 270.23828125 380.008125 270.23828125 379.328125 270.23828125 C379.24304688 270.94984375 379.15796875 271.66140625 379.0703125 272.39453125 C378.16585365 275.86003673 376.62738757 277.90297914 374.453125 280.73828125 C372.36966532 283.4752246 370.40904059 286.09735649 368.6953125 289.08203125 C368.24414062 289.79359375 367.79296875 290.50515625 367.328125 291.23828125 C366.668125 291.23828125 366.008125 291.23828125 365.328125 291.23828125 C365.1734375 292.19734375 365.1734375 292.19734375 365.015625 293.17578125 C364.78875 293.85640625 364.561875 294.53703125 364.328125 295.23828125 C363.338125 295.56828125 362.348125 295.89828125 361.328125 296.23828125 C361.06 297.08390625 360.791875 297.92953125 360.515625 298.80078125 C358.98004513 303.24588087 356.53867529 306.80089861 353.328125 310.23828125 C352.668125 310.23828125 352.008125 310.23828125 351.328125 310.23828125 C350.998125 311.55828125 350.668125 312.87828125 350.328125 314.23828125 C349.668125 314.23828125 349.008125 314.23828125 348.328125 314.23828125 C347.956875 315.07359375 347.956875 315.07359375 347.578125 315.92578125 C344.62713821 321.38510681 340.15729711 325.61867744 335.640625 329.80078125 C334.22923318 331.19540607 334.22923318 331.19540607 333.48828125 333.1171875 C331.76460775 336.26855016 329.16781486 338.03989889 326.3984375 340.26171875 C324.1728751 342.2365595 324.1728751 342.2365595 322.4375 345.12890625 C320.15220613 348.49759869 317.51075052 350.98405799 314.453125 353.61328125 C310.32382341 357.26519256 306.83167017 360.93353968 303.6875 365.46484375 C301.79659267 367.93171711 299.56265016 369.79313059 297.13671875 371.71875 C293.694504 374.61080515 290.64070089 377.91761142 287.50390625 381.1328125 C286.5495041 382.10549321 285.59507688 383.07814933 284.640625 384.05078125 C284.15529297 384.55287109 283.66996094 385.05496094 283.16992188 385.57226562 C281.92687894 386.83245398 280.63112608 388.04019169 279.328125 389.23828125 C278.668125 389.23828125 278.008125 389.23828125 277.328125 389.23828125 C277.06008057 389.83302246 276.79203613 390.42776367 276.51586914 391.04052734 C275.31832801 393.25640921 274.12493517 394.65907653 272.32421875 396.40234375 C271.74865234 396.96695312 271.17308594 397.5315625 270.58007812 398.11328125 C269.68192383 398.97953125 269.68192383 398.97953125 268.765625 399.86328125 C267.57463116 401.01988276 266.38572495 402.17863903 265.19921875 403.33984375 C264.67255615 403.84854004 264.14589355 404.35723633 263.60327148 404.88134766 C262.2117033 406.2322823 262.2117033 406.2322823 261.328125 408.23828125 C260.668125 408.23828125 260.008125 408.23828125 259.328125 408.23828125 C259.10125 408.83640625 258.874375 409.43453125 258.640625 410.05078125 C256.98498248 412.81018545 255.08706793 413.65188907 252.328125 415.23828125 C251.668125 416.22828125 251.008125 417.21828125 250.328125 418.23828125 C249.60625 418.65078125 248.884375 419.06328125 248.140625 419.48828125 C245.00823842 421.43732179 242.7915409 423.69199119 240.23046875 426.3203125 C238.23114895 428.33605382 236.18359389 430.27120113 234.078125 432.17578125 C233.43359375 432.76230469 232.7890625 433.34882812 232.125 433.953125 C230.328125 435.23828125 230.328125 435.23828125 227.328125 435.23828125 C231.2247431 431.24839304 235.13361634 427.34549211 239.390625 423.73828125 C242.83990463 420.77595874 245.78108458 417.56203416 248.7265625 414.10546875 C250.82029406 411.66448415 252.95385501 409.40904239 255.328125 407.23828125 C255.988125 407.23828125 256.648125 407.23828125 257.328125 407.23828125 C257.658125 406.24828125 257.988125 405.25828125 258.328125 404.23828125 C259.94520722 402.52346329 261.62358146 400.86619 263.328125 399.23828125 C264.43202357 398.15080376 265.53346056 397.06082356 266.6328125 395.96875 C267.21232666 395.39455322 267.79184082 394.82035645 268.38891602 394.22875977 C273.92186576 388.73006055 279.29363125 383.20045605 284.328125 377.23828125 C285.84261749 375.48983398 287.36206911 373.74575449 288.88134766 372.00146484 C291.15694661 369.3853446 293.42275379 366.76083725 295.68798828 364.13574219 C296.73358135 362.926104 297.78122059 361.71822935 298.83154297 360.51269531 C305.43968017 352.92766381 311.48716792 345.10472121 317.21875 336.83691406 C318.82435506 334.52320325 320.45405164 332.22655185 322.078125 329.92578125 C324.83257165 325.99271794 327.47389259 321.99460519 330.06640625 317.953125 C331.328125 316.23828125 331.328125 316.23828125 333.328125 315.23828125 C333.98025792 313.2136487 333.98025792 313.2136487 334.328125 311.23828125 C334.988125 311.23828125 335.648125 311.23828125 336.328125 311.23828125 C336.658125 309.58828125 336.988125 307.93828125 337.328125 306.23828125 C337.988125 306.23828125 338.648125 306.23828125 339.328125 306.23828125 C339.47507812 305.62082031 339.62203125 305.00335937 339.7734375 304.3671875 C341.32111685 298.52336374 343.45480899 294.19265944 346.96484375 289.2890625 C348.65750747 286.74279186 349.57115915 284.19044806 350.328125 281.23828125 C350.988125 281.23828125 351.648125 281.23828125 352.328125 281.23828125 C352.410625 280.33078125 352.493125 279.42328125 352.578125 278.48828125 C353.3550137 272.86453472 355.44615729 267.5690642 357.328125 262.23828125 C357.988125 262.23828125 358.648125 262.23828125 359.328125 262.23828125 C363.14504089 239.97293856 364.497154 217.38024129 359.328125 195.23828125 C359.07869141 193.89830078 359.07869141 193.89830078 358.82421875 192.53125 C357.78118465 187.01538499 355.72262372 182.29160647 353.328125 177.23828125 C352.84859375 176.13226563 352.3690625 175.02625 351.875 173.88671875 C351.36453125 172.72398437 350.8540625 171.56125 350.328125 170.36328125 C349.85375 169.27273438 349.379375 168.1821875 348.890625 167.05859375 C347.56436585 164.1932872 347.56436585 164.1932872 345.328125 162.79296875 C343.328125 161.23828125 343.328125 161.23828125 342.140625 158.140625 C339.97980653 152.60933633 335.50624778 148.86877362 331.328125 144.80078125 C330.47323486 143.95765381 329.61834473 143.11452637 328.73754883 142.24584961 C322.95285505 136.61786914 317.1751819 131.54530091 310.328125 127.23828125 C308.29767741 125.93640603 306.30221142 124.62547712 304.328125 123.23828125 C304.328125 122.57828125 304.328125 121.91828125 304.328125 121.23828125 C303.62945313 121.03332031 302.93078125 120.82835937 302.2109375 120.6171875 C301.30085938 120.34777344 300.39078125 120.07835937 299.453125 119.80078125 C298.54820312 119.53394531 297.64328125 119.26710938 296.7109375 118.9921875 C294.328125 118.23828125 294.328125 118.23828125 292.328125 117.23828125 C292.328125 116.57828125 292.328125 115.91828125 292.328125 115.23828125 C291.68875 115.13515625 291.049375 115.03203125 290.390625 114.92578125 C287.95060908 114.37802257 285.84741483 113.71648404 283.515625 112.86328125 C276.65141557 110.5019006 269.45653929 109.49712888 262.328125 108.23828125 C261.5539624 108.06627197 260.7797998 107.8942627 259.98217773 107.71704102 C235.70925148 103.33849181 204.29201152 107.87385967 183.3828125 121.1015625 C181.72082491 122.27173743 180.08010009 123.47358487 178.4765625 124.72265625 C176.328125 126.23828125 176.328125 126.23828125 173.953125 127.1171875 C170.43802886 128.61842647 167.80251338 130.93887545 164.953125 133.42578125 C164.38021729 133.91900879 163.80730957 134.41223633 163.21704102 134.92041016 C153.25445719 143.14935978 153.25445719 143.14935978 146.328125 153.73828125 C145.13075554 156.73170489 143.36549953 158.75523104 141.328125 161.23828125 C140.956875 161.98078125 140.585625 162.72328125 140.203125 163.48828125 C139.328125 165.23828125 139.328125 165.23828125 137.328125 166.23828125 C136.59672472 167.90055461 135.87128327 169.56599693 135.19140625 171.25 C133.82355802 174.40038349 132.07621861 177.28460584 130.328125 180.23828125 C127.328125 179.23828125 127.328125 179.23828125 125.4609375 175.921875 C124.78270241 174.51078411 124.11390525 173.09512963 123.453125 171.67578125 C121.25865578 167.10363297 119.09544365 162.62495198 116.328125 158.36328125 C114.328125 155.23828125 114.328125 155.23828125 114.328125 153.23828125 C113.73257812 152.99207031 113.13703125 152.74585938 112.5234375 152.4921875 C109.96111805 151.02865628 108.89193357 149.58169698 107.203125 147.17578125 C103.78862452 142.60594332 99.92199821 138.97831809 95.62109375 135.25 C93.80985004 133.66091907 92.15245866 132.06153923 90.515625 130.30078125 C88.21336807 128.13008186 86.32655827 127.18064599 83.328125 126.23828125 C83.328125 125.57828125 83.328125 124.91828125 83.328125 124.23828125 C82.255625 123.99078125 81.183125 123.74328125 80.078125 123.48828125 C76.328125 122.23828125 76.328125 122.23828125 74.6015625 120.3828125 C71.49644439 117.45375779 68.1426967 116.21421301 64.203125 114.67578125 C63.43830811 114.3713208 62.67349121 114.06686035 61.88549805 113.75317383 C46.67209936 107.77262314 31.7290226 105.78147611 15.390625 105.73828125 C14.67866974 105.73460541 13.96671448 105.73092957 13.23318481 105.72714233 C-1.7306396 105.71481749 -15.18330296 108.60029639 -29.16796875 113.9375 C-32.671875 115.23828125 -32.671875 115.23828125 -34.671875 115.23828125 C-34.671875 115.89828125 -34.671875 116.55828125 -34.671875 117.23828125 C-41.2919982 120.16641267 -41.2919982 120.16641267 -43.984375 120.67578125 C-44.54125 120.86140625 -45.098125 121.04703125 -45.671875 121.23828125 C-46.1359375 122.19734375 -46.1359375 122.19734375 -46.609375 123.17578125 C-47.671875 125.23828125 -47.671875 125.23828125 -49.8515625 126.0859375 C-63.42699354 131.63268564 -74.35172341 145.11576459 -82.734375 156.61328125 C-83.30736328 157.39896484 -83.88035156 158.18464844 -84.47070312 158.99414062 C-87.87989045 163.74017003 -87.87989045 163.74017003 -89.671875 169.23828125 C-90.331875 169.23828125 -90.991875 169.23828125 -91.671875 169.23828125 C-92.166875 172.20828125 -92.166875 172.20828125 -92.671875 175.23828125 C-93.331875 175.23828125 -93.991875 175.23828125 -94.671875 175.23828125 C-94.78660156 175.92019531 -94.90132813 176.60210937 -95.01953125 177.3046875 C-95.77886899 180.71943384 -96.92548408 183.88407268 -98.109375 187.17578125 C-104.77908783 206.90810877 -105.15701048 230.92918466 -100.671875 251.23828125 C-100.53233398 251.87088867 -100.39279297 252.50349609 -100.24902344 253.15527344 C-98.43793194 261.20328725 -96.22437339 269.02447799 -93.40625 276.78515625 C-92.671875 279.23828125 -92.671875 279.23828125 -92.671875 283.23828125 C-91.7128125 283.54765625 -91.7128125 283.54765625 -90.734375 283.86328125 C-89.7134375 284.54390625 -89.7134375 284.54390625 -88.671875 285.23828125 C-88.341875 287.21828125 -88.011875 289.19828125 -87.671875 291.23828125 C-82.391875 291.56828125 -77.111875 291.89828125 -71.671875 292.23828125 C-71.671875 292.56828125 -71.671875 292.89828125 -71.671875 293.23828125 C-76.74386388 293.31241646 -81.81553768 293.36687576 -86.88793945 293.40307617 C-88.61358127 293.41816641 -90.33918472 293.438641 -92.06469727 293.46459961 C-94.54452988 293.50097334 -97.02385564 293.51800484 -99.50390625 293.53125 C-100.66186455 293.55447578 -100.66186455 293.55447578 -101.84321594 293.57817078 C-107.19075792 293.5798525 -107.19075792 293.5798525 -109.60449219 291.86621094 C-111.50425413 288.96876981 -112.85605748 285.85507008 -114.29296875 282.7109375 C-115.77983878 280.04468047 -117.51600315 278.38173925 -119.671875 276.23828125 C-120.7772264 274.46390137 -121.81816322 272.64803568 -122.796875 270.80078125 C-123.29445313 269.87394531 -123.79203125 268.94710938 -124.3046875 267.9921875 C-125.56902223 265.44545612 -126.65976574 262.89386316 -127.671875 260.23828125 C-128.331875 260.23828125 -128.991875 260.23828125 -129.671875 260.23828125 C-130.17976563 259.19929688 -130.68765625 258.1603125 -131.2109375 257.08984375 C-135.83710922 247.67588289 -135.83710922 247.67588289 -141.109375 238.61328125 C-143.25861506 235.16517796 -144.45375287 232.38260169 -144.671875 228.23828125 C-145.331875 228.23828125 -145.991875 228.23828125 -146.671875 228.23828125 C-150.27863838 219.79421168 -153.13889235 211.11515391 -155.97119141 202.38916016 C-156.5845592 200.50631336 -157.21111559 198.62777341 -157.83984375 196.75 C-162.41154316 182.68457999 -164.1594147 169.26871555 -164.00805664 154.56494141 C-163.98432462 152.10806605 -163.98754508 149.65227494 -163.99414062 147.1953125 C-163.97242626 134.46127663 -162.65265051 122.2403718 -159.546875 109.86328125 C-159.36511719 109.115625 -159.18335938 108.36796875 -158.99609375 107.59765625 C-158.56057875 105.80975258 -158.11716759 104.02377484 -157.671875 102.23828125 C-157.011875 102.23828125 -156.351875 102.23828125 -155.671875 102.23828125 C-155.341875 99.59828125 -155.011875 96.95828125 -154.671875 94.23828125 C-154.011875 94.23828125 -153.351875 94.23828125 -152.671875 94.23828125 C-152.58292969 93.57183594 -152.49398437 92.90539062 -152.40234375 92.21875 C-151.46188766 88.38148797 -149.77763419 85.04448082 -147.984375 81.55078125 C-147.62061768 80.83817139 -147.25686035 80.12556152 -146.88208008 79.39135742 C-145.82293187 77.33440343 -144.75077123 75.28493377 -143.671875 73.23828125 C-143.18460938 72.31015625 -142.69734375 71.38203125 -142.1953125 70.42578125 C-138.55039011 63.94591922 -133.84071463 58.49662728 -128.96484375 52.92578125 C-126.69330084 50.48140319 -126.69330084 50.48140319 -125.671875 48.23828125 C-125.011875 48.23828125 -124.351875 48.23828125 -123.671875 48.23828125 C-123.671875 47.57828125 -123.671875 46.91828125 -123.671875 46.23828125 C-123.011875 46.23828125 -122.351875 46.23828125 -121.671875 46.23828125 C-121.4140625 45.6453125 -121.15625 45.05234375 -120.890625 44.44140625 C-119.57417605 42.0616716 -118.24606718 40.72849333 -116.171875 38.98828125 C-115.25921875 38.20710938 -115.25921875 38.20710938 -114.328125 37.41015625 C-112.671875 36.23828125 -112.671875 36.23828125 -110.671875 36.23828125 C-110.671875 35.57828125 -110.671875 34.91828125 -110.671875 34.23828125 C-109.021875 33.57828125 -107.371875 32.91828125 -105.671875 32.23828125 C-105.671875 31.57828125 -105.671875 30.91828125 -105.671875 30.23828125 C-101.05094481 26.49447207 -95.80463402 23.63143809 -90.3984375 21.1953125 C-88.60774252 20.31438709 -88.60774252 20.31438709 -87.2890625 18.79296875 C-85.14449535 16.73128342 -82.88058325 15.76314663 -80.171875 14.55078125 C-78.73328125 13.89529297 -78.73328125 13.89529297 -77.265625 13.2265625 C-74.671875 12.23828125 -74.671875 12.23828125 -71.671875 12.23828125 C-71.671875 11.57828125 -71.671875 10.91828125 -71.671875 10.23828125 C-47.5254086 1.39342176 -25.56497619 -0.2937878 0 0 Z " fill="#68E8B6" transform="translate(392.671875,250.76171875)"/>
<path d="M0 0 C1.24546405 2.49092811 0.7767578 3.41080733 0 6 C1.32 5.01 2.64 4.02 4 3 C4.99 3.495 4.99 3.495 6 4 C5.00419922 4.88751953 5.00419922 4.88751953 3.98828125 5.79296875 C3.10527344 6.58316406 2.22226562 7.37335937 1.3125 8.1875 C0.44238281 8.96480469 -0.42773438 9.74210938 -1.32421875 10.54296875 C-4.95020484 13.87252386 -8.3880412 17.3717323 -11.82421875 20.89453125 C-12.7786209 21.86721196 -13.73304812 22.83986808 -14.6875 23.8125 C-15.17283203 24.31458984 -15.65816406 24.81667969 -16.15820312 25.33398438 C-17.40124606 26.59417273 -18.69699892 27.80191044 -20 29 C-20.66 29 -21.32 29 -22 29 C-22.40206665 29.89211182 -22.40206665 29.89211182 -22.81225586 30.80224609 C-24.00979699 33.01812796 -25.20318983 34.42079528 -27.00390625 36.1640625 C-27.57947266 36.72867188 -28.15503906 37.29328125 -28.74804688 37.875 C-29.34681641 38.4525 -29.94558594 39.03 -30.5625 39.625 C-31.75349384 40.78160151 -32.94240005 41.94035778 -34.12890625 43.1015625 C-34.65556885 43.61025879 -35.18223145 44.11895508 -35.72485352 44.64306641 C-37.1164217 45.99400105 -37.1164217 45.99400105 -38 48 C-38.66 48 -39.32 48 -40 48 C-40.226875 48.598125 -40.45375 49.19625 -40.6875 49.8125 C-42.34314252 52.5719042 -44.24105707 53.41360782 -47 55 C-47.66 55.99 -48.32 56.98 -49 58 C-49.721875 58.4125 -50.44375 58.825 -51.1875 59.25 C-54.31988658 61.19904054 -56.5365841 63.45370994 -59.09765625 66.08203125 C-61.09697605 68.09777257 -63.14453111 70.03291988 -65.25 71.9375 C-65.89453125 72.52402344 -66.5390625 73.11054687 -67.203125 73.71484375 C-69 75 -69 75 -72 75 C-68.1033819 71.01011179 -64.19450866 67.10721086 -59.9375 63.5 C-56.48822037 60.53767749 -53.54704042 57.32375291 -50.6015625 53.8671875 C-48.50783094 51.4262029 -46.37426999 49.17076114 -44 47 C-43.34 47 -42.68 47 -42 47 C-41.67 46.01 -41.34 45.02 -41 44 C-39.38291778 42.28518204 -37.70454354 40.62790875 -36 39 C-34.89610143 37.91252251 -33.79466444 36.82254231 -32.6953125 35.73046875 C-32.11579834 35.15627197 -31.53628418 34.5820752 -30.93920898 33.99047852 C-25.40644618 28.49196509 -20.03264564 22.96348051 -15 17 C-12.73477069 14.37014184 -10.46067527 11.74798946 -8.1875 9.125 C-7.6112085 8.45734619 -7.03491699 7.78969238 -6.44116211 7.10180664 C-5.8972583 6.47266357 -5.35335449 5.84352051 -4.79296875 5.1953125 C-4.3033667 4.62828613 -3.81376465 4.06125977 -3.30932617 3.47705078 C-2.24794368 2.27970526 -1.13140821 1.13140821 0 0 Z " fill="#71E8C1" transform="translate(692,611)"/>
<path d="M0 0 C0.66262848 -0.00175232 1.32525696 -0.00350464 2.00796509 -0.00531006 C4.18185098 -0.00968385 6.3556544 -0.00680608 8.52954102 -0.00341797 C10.05119339 -0.00409237 11.57284567 -0.00506354 13.09449768 -0.00631714 C16.27768992 -0.00778812 19.46085401 -0.00565913 22.64404297 -0.00097656 C26.71020217 0.00471549 30.77629528 0.00144123 34.84245205 -0.00454903 C37.98326611 -0.00817497 41.12406468 -0.00700664 44.26487923 -0.00442123 C45.76348949 -0.00375734 47.26210118 -0.00456148 48.76070976 -0.00690079 C50.86134397 -0.00946027 52.96187352 -0.00554045 55.0625 0 C56.25463608 0.00079559 57.44677216 0.00159119 58.67503357 0.00241089 C62.20916779 0.13359725 65.60631256 0.56849048 69.09594727 1.12939453 C69.09594727 1.45939453 69.09594727 1.78939453 69.09594727 2.12939453 C41.70594727 2.45939453 14.31594727 2.78939453 -13.90405273 3.12939453 C-14.56405273 4.44939453 -15.22405273 5.76939453 -15.90405273 7.12939453 C-17.19876248 8.50026368 -18.5255617 9.8428029 -19.90405273 11.12939453 C-20.89405273 10.79939453 -21.88405273 10.46939453 -22.90405273 10.12939453 C-19.50952727 5.42928235 -15.96228612 1.79473661 -10.14024353 0.52810669 C-6.7260448 0.10746321 -3.43997949 0.00229726 0 0 Z " fill="#B4E0F0" transform="translate(374.904052734375,414.87060546875)"/>
<path d="M0 0 C0 3 0 3 -2.30078125 5.453125 C-3.79371118 6.86034601 -5.30563588 8.24378244 -6.82617188 9.62109375 C-10.51127478 13.10607849 -12.26080318 16.22759644 -14 21 C-14.66 21 -15.32 21 -16 21 C-16.226875 21.598125 -16.45375 22.19625 -16.6875 22.8125 C-18.34314252 25.5719042 -20.24105707 26.41360782 -23 28 C-23.66 28.99 -24.32 29.98 -25 31 C-25.721875 31.4125 -26.44375 31.825 -27.1875 32.25 C-30.31988658 34.19904054 -32.5365841 36.45370994 -35.09765625 39.08203125 C-37.09697605 41.09777257 -39.14453111 43.03291988 -41.25 44.9375 C-42.21679688 45.81728516 -42.21679688 45.81728516 -43.203125 46.71484375 C-45 48 -45 48 -48 48 C-44.1033819 44.01011179 -40.19450866 40.10721086 -35.9375 36.5 C-32.48822037 33.53767749 -29.54704042 30.32375291 -26.6015625 26.8671875 C-24.50783094 24.4262029 -22.37426999 22.17076114 -20 20 C-19.34 20 -18.68 20 -18 20 C-17.67 19.01 -17.34 18.02 -17 17 C-15.38067063 15.28730389 -13.70384452 13.62864035 -12 12 C-10.95959309 10.96489284 -9.92191602 9.927036 -8.88671875 8.88671875 C-5.92447917 5.92447917 -2.96223958 2.96223958 0 0 Z " fill="#65D1D0" transform="translate(668,638)"/>
<path d="M0 0 C2.13440093 0.01076991 4.26796721 0.0000035 6.40234375 -0.01269531 C14.48674602 -0.021558 22.66064212 0.08025675 30.50390625 2.26074219 C31.49390625 3.25074219 31.49390625 3.25074219 32.50390625 4.26074219 C31.69695312 4.11636719 30.89 3.97199219 30.05859375 3.82324219 C10.59558713 0.84800551 -9.90650859 0.38510916 -29.00390625 5.48339844 C-32.12691555 6.17856494 -33.59719166 6.45484952 -36.49609375 5.26074219 C-24.9392563 0.17573371 -12.43176902 -0.07440746 0 0 Z " fill="#4BC9C7" transform="translate(633.49609375,355.7392578125)"/>
<path d="M0 0 C1.34027504 0.00068733 1.34027504 0.00068733 2.70762634 0.00138855 C4.57389677 0.00438289 6.44016535 0.01218318 8.30639648 0.0246582 C11.1763582 0.04312326 14.04600021 0.04516607 16.91601562 0.04492188 C18.7356799 0.04983035 20.55534198 0.05565572 22.375 0.0625 C23.23529312 0.06361282 24.09558624 0.06472565 24.98194885 0.06587219 C30.97372752 0.11435252 30.97372752 0.11435252 32.08984375 1.23046875 C34.10295824 1.62615983 36.12581583 1.97299066 38.15234375 2.29296875 C39.80943359 2.55787109 39.80943359 2.55787109 41.5 2.828125 C42.35464844 2.96089844 43.20929688 3.09367188 44.08984375 3.23046875 C44.08984375 3.56046875 44.08984375 3.89046875 44.08984375 4.23046875 C41.86041627 4.08867837 39.63130747 3.94187177 37.40234375 3.79296875 C36.16097656 3.71175781 34.91960937 3.63054687 33.640625 3.546875 C30.08984375 3.23046875 30.08984375 3.23046875 27.80957031 2.72119141 C22.50915002 1.76483191 17.07308593 2.04455909 11.69995117 2.04516602 C9.55822247 2.04299998 7.41702699 2.02487748 5.27539062 2.00585938 C-2.08318548 1.97671925 -9.13282089 2.33162682 -16.37475586 3.79956055 C-18.93674517 4.23498771 -21.31685991 4.30429614 -23.91015625 4.23046875 C-16.53285948 0.21709559 -8.23203 -0.07024479 0 0 Z " fill="#A2F1D2" transform="translate(369.91015625,250.76953125)"/>
<path d="M0 0 C0.99 0.33 1.98 0.66 3 1 C1.37660195 2.70884005 -0.29319053 4.37446717 -2 6 C-2.66 6 -3.32 6 -4 6 C-4.21398437 6.54140625 -4.42796875 7.0828125 -4.6484375 7.640625 C-6.48077943 10.8392797 -8.99796606 13.20964484 -11.625 15.75 C-12.140625 16.25660156 -12.65625 16.76320313 -13.1875 17.28515625 C-14.45383339 18.52803902 -15.7263144 19.76465276 -17 21 C-17.33 20.01 -17.66 19.02 -18 18 C-16.77023437 16.78763672 -16.77023437 16.78763672 -15.515625 15.55078125 C-14.42694863 14.47149002 -13.3384145 13.39205531 -12.25 12.3125 C-11.71117187 11.78205078 -11.17234375 11.25160156 -10.6171875 10.70507812 C-8.16763788 8.27046479 -5.89624603 5.87030753 -3.734375 3.16796875 C-2 1 -2 1 0 0 Z " fill="#78E7C4" transform="translate(674,634)"/>
<path d="M0 0 C0.66 0.33 1.32 0.66 2 1 C-2.32893185 6.18419194 -6.76564995 10.72706118 -12 15 C-12 12 -12 12 -9.375 9.08203125 C-8.25750594 7.98449244 -7.13214357 6.89492105 -6 5.8125 C-5.42765625 5.25369141 -4.8553125 4.69488281 -4.265625 4.11914062 C-2.85037212 2.73926907 -1.42602845 1.36873266 0 0 Z " fill="#35BDCE" transform="translate(329,385)"/>
<path d="M0 0 C2.20613342 7.01235266 -1.35401164 15.41148897 -4 22 C-4.66 22.99 -5.32 23.98 -6 25 C-5.48517081 19.147205 -4.54642808 13.6702363 -3 8 C-2.34 8 -1.68 8 -1 8 C-0.67 5.36 -0.34 2.72 0 0 Z " fill="#A5F1D2" transform="translate(238,345)"/>
<path d="M0 0 C0.66 0.33 1.32 0.66 2 1 C1.01 2.485 1.01 2.485 0 4 C-0.66 4 -1.32 4 -2 4 C-2.3403125 4.8971875 -2.3403125 4.8971875 -2.6875 5.8125 C-4.34314252 8.5719042 -6.24105707 9.41360782 -9 11 C-9.99 12.485 -9.99 12.485 -11 14 C-11.66 13.67 -12.32 13.34 -13 13 C-4.738041 3.40546697 -4.738041 3.40546697 0 0 Z " fill="#AFF4DA" transform="translate(654,655)"/>
<path d="M0 0 C0.66 0.33 1.32 0.66 2 1 C1.01 1.33 0.02 1.66 -1 2 C-1.68486725 3.32407669 -2.34870203 4.65909241 -3 6 C-4.29470975 7.37086915 -5.62150897 8.71340837 -7 10 C-7.99 9.67 -8.98 9.34 -10 9 C-7.12505529 5.01930733 -4.17882671 2.56428003 0 0 Z " fill="#B6DFF0" transform="translate(362,416)"/>
<path d="M0 0 C1 3 1 3 0.375 5.125 C-1 7 -1 7 -3.625 7.75 C-4.800625 7.87375 -4.800625 7.87375 -6 8 C-6.33 8.99 -6.66 9.98 -7 11 C-7.66 10.67 -8.32 10.34 -9 10 C-6.03 6.7 -3.06 3.4 0 0 Z " fill="#60D4C9" transform="translate(678,627)"/>
<path d="M0 0 C0.33 0 0.66 0 1 0 C1.375 2.6875 1.375 2.6875 1 6 C-0.823983 8.06398076 -2.72763839 9.39041053 -5 11 C-3.93051945 6.72207778 -3.02504439 3.28809173 0 0 Z " fill="#5DD5C5" transform="translate(738,543)"/>
<path d="M0 0 C0.99 0.66 1.98 1.32 3 2 C0.69 4.31 -1.62 6.62 -4 9 C-4.66 8.34 -5.32 7.68 -6 7 C-4.19587357 3.73539027 -3.16605307 2.11070205 0 0 Z " fill="#79E8C4" transform="translate(682,625)"/>
<path d="M0 0 C1.04449911 3.13349732 0.93423645 3.98968256 0 7 C-1.98 7.33 -3.96 7.66 -6 8 C-4.26440562 4.942048 -2.61527381 2.36620011 0 0 Z " fill="#60DAC6" transform="translate(685,619)"/>
<path d="M0 0 C0.66 0.33 1.32 0.66 2 1 C1.0479279 2.00596297 0.08812654 3.00461563 -0.875 4 C-1.40867187 4.556875 -1.94234375 5.11375 -2.4921875 5.6875 C-4 7 -4 7 -6 7 C-6.33 6.01 -6.66 5.02 -7 4 C-6.01 3.01 -5.02 2.02 -4 1 C-4 1.66 -4 2.32 -4 3 C-2.68 2.01 -1.36 1.02 0 0 Z " fill="#8BECCA" transform="translate(696,614)"/>
<path d="M0 0 C0.598125 0.309375 1.19625 0.61875 1.8125 0.9375 C4.08956772 2.10209704 4.08956772 2.10209704 7 3 C8.6875 5.5625 8.6875 5.5625 10 8 C4.98886765 6.5682479 3.05530451 4.01554307 0 0 Z " fill="#80CAE4" transform="translate(477,730)"/>
<path d="M0 0 C-1.49097658 3.7952131 -3.75700849 5.61042731 -7 8 C-6.44414399 4.1090079 -4.34122117 0 0 0 Z " fill="#89ECCB" transform="translate(663,647)"/>
<path d="M0 0 C0.33 0.66 0.66 1.32 1 2 C-0.25 4.5625 -0.25 4.5625 -2 7 C-2.99 7.33 -3.98 7.66 -5 8 C-3.8141763 4.62496331 -2.72426311 2.35277269 0 0 Z " fill="#60D6C6" transform="translate(707,592)"/>
<path d="M0 0 C2.52588702 2.36292656 3.88820837 3.66462511 5 7 C4.67 7.66 4.34 8.32 4 9 C3.34 9 2.68 9 2 9 C1.34 6.03 0.68 3.06 0 0 Z " fill="#3CBFC3" transform="translate(298,525)"/>
<path d="M0 0 C0.33 0.66 0.66 1.32 1 2 C-0.61594832 4.04119788 -2.2856382 6.04072937 -4 8 C-4.66 8 -5.32 8 -6 8 C-4.55746343 4.63408134 -2.66735273 2.48952921 0 0 Z " fill="#55D4C4" transform="translate(692,611)"/>
</svg>
